<svg xmlns="http://www.w3.org/2000/svg" width="400" height="225" viewBox="0 0 400 225"><rect width="100%" height="100%" fill="#DDDDDD"/><path fill="#999999" d="M96.42 100.055h4.15v25.31h-2.41q-.56 0-.94-.18-.38-.19-.73-.63l-13.21-16.87q.11 1.16.11 2.14v15.54h-4.15v-25.31h2.47q.29 0 .51.03.22.03.39.11.16.07.32.22t.35.4l13.27 16.94q-.06-.62-.09-1.21-.04-.6-.04-1.1v-15.39Zm17.05 7.07q1.99 0 3.63.65t2.8 1.84q1.16 1.19 1.8 2.9.62 1.72.62 3.84 0 2.13-.62 3.85-.64 1.71-1.8 2.92-1.16 1.21-2.8 1.85-1.64.65-3.63.65-2.01 0-3.66-.65-1.64-.64-2.81-1.85-1.16-1.21-1.8-2.92-.64-1.72-.64-3.85 0-2.12.64-3.84.64-1.71 1.8-2.9 1.17-1.19 2.81-1.84 1.65-.65 3.66-.65Zm0 15.18q2.24 0 3.32-1.51 1.07-1.5 1.07-4.41 0-2.9-1.07-4.43-1.08-1.52-3.32-1.52-2.27 0-3.37 1.53-1.09 1.53-1.09 4.42 0 2.89 1.09 4.4 1.1 1.52 3.37 1.52Zm36-19.87-1.18 2.23q-.21.36-.44.53-.24.17-.59.17-.37 0-.79-.27-.43-.28-1.03-.61-.59-.33-1.39-.6-.8-.27-1.88-.27-.98 0-1.72.23-.73.24-1.23.66-.5.42-.74 1.01-.25.58-.25 1.28 0 .89.5 1.49.5.59 1.32 1.01.82.42 1.87.76 1.05.33 2.16.71 1.1.37 2.15.87 1.05.5 1.87 1.26.82.76 1.32 1.86.5 1.11.5 2.68 0 1.72-.58 3.21-.59 1.5-1.72 2.61-1.13 1.11-2.76 1.75-1.62.64-3.72.64-1.21 0-2.38-.24-1.18-.23-2.25-.67-1.08-.44-2.02-1.05-.95-.61-1.68-1.37l1.38-2.25q.17-.25.45-.41.28-.17.6-.17.44 0 .94.36.51.36 1.21.79.7.44 1.64.8.93.36 2.25.36 2.01 0 3.11-.95 1.1-.96 1.1-2.74 0-1-.49-1.63-.5-.63-1.33-1.06-.82-.43-1.87-.73-1.05-.29-2.13-.64-1.09-.35-2.14-.84t-1.87-1.28q-.82-.79-1.32-1.97-.5-1.18-.5-2.91 0-1.39.55-2.7.55-1.31 1.6-2.33 1.05-1.01 2.59-1.62 1.54-.62 3.54-.62 2.24 0 4.13.7 1.89.7 3.22 1.96Zm17.86 7.2-1.13 1.57q-.2.25-.38.39t-.53.14q-.34 0-.65-.2-.32-.21-.75-.46-.44-.25-1.04-.45-.61-.21-1.5-.21-1.14 0-2 .42-.85.41-1.42 1.18t-.85 1.86q-.28 1.09-.28 2.48 0 1.43.31 2.55.3 1.12.88 1.88.58.76 1.4 1.16.82.39 1.85.39 1.04 0 1.68-.25.64-.26 1.07-.56.44-.31.76-.56.33-.26.73-.26.52 0 .79.41l1.24 1.57q-.72.84-1.56 1.41-.84.57-1.74.91-.9.34-1.85.48-.96.14-1.9.14-1.67 0-3.14-.62-1.47-.62-2.57-1.81-1.1-1.19-1.74-2.91-.64-1.73-.64-3.93 0-1.98.57-3.67t1.67-2.92q1.1-1.24 2.73-1.94t3.75-.7q2.01 0 3.52.65 1.52.65 2.72 1.86Zm6.69-1.14.26 2.03q.84-1.61 2-2.53 1.15-.92 2.73-.92 1.24 0 1.99.54l-.28 3.24q-.09.32-.25.45-.17.13-.45.13-.26 0-.78-.09-.51-.09-1-.09-.72 0-1.28.21t-1.01.61q-.44.39-.78.95-.35.56-.64 1.28v11.06h-4.33v-17.96h2.54q.67 0 .93.24t.35.85Zm12.65 5.83h8.16q0-.84-.24-1.59-.23-.74-.71-1.3-.47-.56-1.2-.88-.72-.33-1.68-.33-1.88 0-2.95 1.07-1.08 1.07-1.38 3.03Zm11.03 2.6h-11.11q.1 1.39.49 2.39.38 1.01 1.01 1.67.63.65 1.5.98.86.32 1.91.32 1.05 0 1.81-.25.77-.24 1.33-.54.57-.3 1-.54.43-.25.83-.25.55 0 .81.41l1.24 1.57q-.72.84-1.61 1.41-.89.57-1.86.91-.97.34-1.98.48-1.01.14-1.95.14-1.87 0-3.48-.62-1.61-.62-2.8-1.84-1.19-1.21-1.88-3.01-.68-1.79-.68-4.15 0-1.84.6-3.46.59-1.62 1.7-2.82 1.11-1.2 2.71-1.9 1.61-.7 3.62-.7 1.7 0 3.13.55 1.44.54 2.47 1.58 1.03 1.04 1.62 2.56.58 1.51.58 3.45 0 .98-.21 1.32-.21.34-.8.34Zm7.66-2.6h8.16q0-.84-.24-1.59-.23-.74-.71-1.3-.47-.56-1.2-.88-.72-.33-1.68-.33-1.88 0-2.95 1.07-1.08 1.07-1.38 3.03Zm11.03 2.6h-11.11q.1 1.39.49 2.39.38 1.01 1.01 1.67.63.65 1.5.98.86.32 1.91.32 1.05 0 1.81-.25.77-.24 1.33-.54.57-.3 1-.54.43-.25.83-.25.55 0 .81.41l1.24 1.57q-.72.84-1.61 1.41-.89.57-1.86.91-.97.34-1.98.48-1.01.14-1.95.14-1.87 0-3.48-.62-1.61-.62-2.8-1.84-1.19-1.21-1.88-3.01-.68-1.79-.68-4.15 0-1.84.6-3.46.59-1.62 1.7-2.82 1.11-1.2 2.71-1.9 1.61-.7 3.62-.7 1.7 0 3.13.55 1.44.54 2.47 1.58 1.03 1.04 1.62 2.56.58 1.51.58 3.45 0 .98-.21 1.32-.21.34-.8.34Zm8-8.73.29 1.42q.55-.54 1.15-1.01.6-.46 1.28-.78.67-.33 1.44-.51.77-.19 1.68-.19 1.47 0 2.61.5t1.9 1.4q.76.9 1.15 2.16.4 1.25.4 2.75v11.43h-4.33v-11.43q0-1.64-.75-2.54-.75-.91-2.29-.91-1.12 0-2.1.51t-1.86 1.38v12.99h-4.32v-17.96h2.64q.84 0 1.11.79Zm27.93 1.16-.98 1.55q-.18.28-.37.4-.19.11-.49.11-.32 0-.68-.17-.35-.18-.83-.4-.47-.22-1.07-.39-.61-.18-1.43-.18-1.28 0-2 .55-.73.54-.73 1.41 0 .58.38.98.37.39.99.69.63.29 1.41.53.79.24 1.6.52.82.28 1.61.64.78.35 1.4.91.63.55 1 1.32.38.77.38 1.85 0 1.3-.47 2.39-.46 1.09-1.37 1.89-.91.8-2.25 1.24-1.34.45-3.09.45-.92 0-1.81-.17-.88-.16-1.7-.46-.81-.3-1.5-.7-.69-.4-1.22-.88l1-1.64q.19-.3.46-.46.26-.15.66-.15t.76.22q.36.23.83.49.48.27 1.11.49.64.23 1.62.23.77 0 1.32-.18.56-.19.91-.48.36-.3.53-.69.17-.4.17-.82 0-.63-.38-1.03t-1-.7q-.62-.3-1.42-.53-.79-.24-1.62-.52-.83-.28-1.63-.66-.8-.37-1.42-.95-.62-.58-1-1.42-.37-.84-.37-2.03 0-1.1.44-2.1.43-1 1.28-1.74.85-.74 2.12-1.19 1.27-.45 2.93-.45 1.86 0 3.38.62 1.52.61 2.54 1.61Zm7.77-10v9.98q1.05-.98 2.31-1.59 1.26-.62 2.95-.62 1.47 0 2.61.5t1.9 1.4q.76.9 1.15 2.16.4 1.25.4 2.75v11.43h-4.32v-11.43q0-1.64-.76-2.54-.75-.91-2.29-.91-1.12 0-2.1.51t-1.85 1.38v12.99h-4.33v-26.01h4.33Zm23.36 7.77q1.99 0 3.63.65 1.63.65 2.8 1.84 1.16 1.19 1.79 2.9.63 1.72.63 3.84 0 2.13-.63 3.85-.63 1.71-1.79 2.92-1.17 1.21-2.8 1.85-1.64.65-3.63.65-2.02 0-3.66-.65-1.64-.64-2.81-1.85-1.16-1.21-1.8-2.92-.64-1.72-.64-3.85 0-2.12.64-3.84.64-1.71 1.8-2.9 1.17-1.19 2.81-1.84 1.64-.65 3.66-.65Zm0 15.18q2.24 0 3.31-1.51 1.08-1.5 1.08-4.41 0-2.9-1.08-4.43-1.07-1.52-3.31-1.52-2.28 0-3.37 1.53-1.09 1.53-1.09 4.42 0 2.89 1.09 4.4 1.09 1.52 3.37 1.52Zm18.15 3.34q-2.35 0-3.6-1.32t-1.25-3.65v-10.03h-1.84q-.35 0-.59-.23-.25-.22-.25-.68v-1.71l2.89-.48.91-4.9q.09-.35.33-.54.25-.19.63-.19h2.24v5.65h4.8v3.08h-4.8v9.73q0 .84.41 1.31.41.48 1.13.48.4 0 .67-.1.28-.1.48-.2l.36-.2q.15-.1.31-.1.19 0 .31.1.13.09.27.29l1.29 2.1q-.94.78-2.17 1.19-1.22.4-2.53.4Zm18.97-16.29-.98 1.55q-.18.28-.37.4-.19.11-.49.11-.32 0-.68-.17-.35-.18-.83-.4-.47-.22-1.07-.39-.61-.18-1.43-.18-1.28 0-2 .55-.73.54-.73 1.41 0 .58.38.98.37.39.99.69.62.29 1.41.53.79.24 1.6.52.82.28 1.61.64.78.35 1.4.91.63.55 1 1.32.38.77.38 1.85 0 1.3-.47 2.39-.46 1.09-1.37 1.89-.91.8-2.25 1.24-1.34.45-3.09.45-.93 0-1.81-.17-.88-.16-1.7-.46-.81-.3-1.5-.7-.69-.4-1.22-.88l1-1.64q.19-.3.46-.46.26-.15.66-.15t.76.22q.36.23.83.49.48.27 1.11.49.64.23 1.62.23.77 0 1.32-.18.56-.19.91-.48.36-.3.53-.69.16-.4.16-.82 0-.63-.37-1.03-.38-.4-1-.7-.62-.3-1.42-.53-.79-.24-1.62-.52-.84-.28-1.63-.66-.8-.37-1.42-.95-.62-.58-1-1.42-.37-.84-.37-2.03 0-1.1.43-2.1.44-1 1.29-1.74.85-.74 2.12-1.19 1.27-.45 2.93-.45 1.86 0 3.38.62 1.52.61 2.54 1.61Z"/></svg>